<svg width="76" height="130" viewBox="0 0 76 130" fill="none" xmlns="http://www.w3.org/2000/svg">
<path d="M56 69.5C48.9162 72.2325 43.2416 71.7808 34 72C47.3329 82.8442 43.0367 92.6943 44 107.5H66C65.0196 91.8802 68.8617 81.9519 56 69.5Z" fill="#00524C"/>
<path d="M73.125 42.375C73.125 47.2083 72.1667 51.5417 70.25 55.375C68.3333 59.125 65.875 62.125 62.875 64.375C59.7917 66.5417 56.375 68.125 52.625 69.125C48.9583 70.0417 45 70.5 40.75 70.5H33.25V57.75H40.5C43.3333 57.75 45.8333 57.5417 48 57.125C50.25 56.7083 52.0833 55.875 53.5 54.625C55.25 53.375 56.6667 51.7083 57.75 49.625C58.9167 47.4583 59.5 45.0417 59.5 42.375C59.5 39.125 58.9167 36.5417 57.75 34.625C56.5833 32.7083 55.1667 31.2083 53.5 30.125C51.8333 28.7083 49.875 27.75 47.625 27.25C45.4583 26.75 43.375 26.5 41.375 26.5H30.5V107.5H16.875V14.25H41.125C45.125 14.25 48.9167 14.75 52.5 15.75C56.1667 16.75 59.5 18.2083 62.5 20.125C65.75 22.2083 68.3333 25.125 70.25 28.875C72.1667 32.625 73.125 37.125 73.125 42.375Z" fill="url(#paint0_linear_27_59)"/>
<path d="M63.125 42.375C63.125 47.2083 62.1667 51.5417 60.25 55.375C58.3333 59.125 55.875 62.125 52.875 64.375C49.7917 66.5417 46.375 68.125 42.625 69.125C38.9583 70.0417 35 70.5 30.75 70.5H23.25V57.75H30.5C33.3333 57.75 35.8333 57.5417 38 57.125C40.25 56.7083 42.0833 55.875 43.5 54.625C45.25 53.375 46.6667 51.7083 47.75 49.625C48.9167 47.4583 49.5 45.0417 49.5 42.375C49.5 39.125 48.9167 36.5417 47.75 34.625C46.5833 32.7083 45.1667 31.2083 43.5 30.125C41.8333 28.7083 39.875 27.75 37.625 27.25C35.4583 26.75 33.375 26.5 31.375 26.5H20.5V107.5H6.875V14.25H31.125C35.125 14.25 38.9167 14.75 42.5 15.75C46.1667 16.75 49.5 18.2083 52.5 20.125C55.75 22.2083 58.3333 25.125 60.25 28.875C62.1667 32.625 63.125 37.125 63.125 42.375Z" fill="#00524C"/>
<defs>
<linearGradient id="paint0_linear_27_59" x1="43" y1="0" x2="43" y2="130" gradientUnits="userSpaceOnUse">
<stop stop-color="#00524C"/>
<stop offset="1" stop-color="#AACE9C"/>
</linearGradient>
</defs>
</svg>
