<svg width="73" height="128" viewBox="0 0 73 128" fill="none" xmlns="http://www.w3.org/2000/svg">
	<path d="M30.75 29H23.25V55.5H30.75V29Z" fill="currentColor"/>
	<path d="M30.75 73H23.25V107.5H30.75V73Z" fill="currentColor"/>
	<path d="M64 20.5C57.9854 16.2589 54.0794 15.1182 47 14C50.413 15.3132 52.4062 16.2163 57 20C59.1482 21.91 60.3525 23.2942 62.5 27C63.5878 29.4499 64.141 31.172 65 35C65.7388 38.1112 65.7532 40.8705 65.5 46.5C65.1965 48.5157 64.7371 50.0816 63.5 53.5C62.6928 55.8725 62.0029 57.184 60.5 59.5C59.0288 61.446 58.0796 62.5393 56 64.5C53.7503 66.5503 51.9225 67.6363 48 69.5C51.9436 68.7039 54.133 68.0344 58 66.5C60.6998 65.3127 62.1015 64.3874 64.5 62.5C68.0295 58.9068 69.5528 56.6002 71.5 52C72.7499 47.3172 73.0072 45.0801 73 41.5C72.8933 37.0773 72.5117 34.5638 71 30C69.2255 26.0891 67.7935 23.9892 64 20.5Z" fill="currentColor"/>
	<path d="M58 70.5C50.9162 73.1606 45.2416 72.7208 36 72.9342C49.3329 83.493 45.0367 93.0839 46 107.5H68C67.0196 92.2912 70.8617 82.6242 58 70.5Z" fill="currentColor"/>
	<path d="M63.125 42.375C63.125 47.2083 62.1667 51.5417 60.25 55.375C58.3333 59.125 55.875 62.125 52.875 64.375C49.7917 66.5417 46.375 68.125 42.625 69.125C38.9583 70.0417 35 70.5 30.75 70.5H23.25V57.75H30.5C33.3333 57.75 35.8333 57.5417 38 57.125C40.25 56.7083 42.0833 55.875 43.5 54.625C45.25 53.375 46.6667 51.7083 47.75 49.625C48.9167 47.4583 49.5 45.0417 49.5 42.375C49.5 39.125 48.9167 36.5417 47.75 34.625C46.5833 32.7083 45.1667 31.2083 43.5 30.125C41.8333 28.7083 39.875 27.75 37.625 27.25C35.4583 26.75 33.375 26.5 31.375 26.5H20.5V107.5H6.875V14.25H31.125C35.125 14.25 38.9167 14.75 42.5 15.75C46.1667 16.75 49.5 18.2083 52.5 20.125C55.75 22.2083 58.3333 25.125 60.25 28.875C62.1667 32.625 63.125 37.125 63.125 42.375Z" fill="currentColor"/>
</svg>
